<svg width="30" height="30" viewBox="0 0 30 30" fill="none" xmlns="http://www.w3.org/2000/svg">
  <path fill-rule="evenodd" clip-rule="evenodd" d="M15 8C19.8749 8 25.9999 14.475 25.9999 14.475V15.65C25.9999 15.65 19.8749 22.125 15 22.125C10.125 22.125 4 15.65 4 15.65V14.475C4 14.475 10.125 8 15 8ZM15 19.775C17.6 19.775 19.7249 17.675 19.7249 15.075C19.7249 12.45 17.6 10.35 15 10.35C12.4 10.35 10.275 12.45 10.275 15.075C10.275 17.675 12.4 19.775 15 19.775ZM15 13.5C15 14.35 15.7 15.075 16.575 15.075H17.35C17.35 16.375 16.3 17.425 15 17.425C13.7 17.425 12.65 16.375 12.65 15.075C12.65 13.75 13.7 12.7 15 12.7V13.5Z" fill="#052962"/>
  <rect x="24.9084" y="6.51839" width="2" height="26" transform="rotate(45 24.9084 6.51839)" fill="white"/>
  <rect x="22.0726" y="3.6826" width="2" height="26" transform="rotate(45 22.0726 3.6826)" fill="white"/>
  <rect x="23.4941" y="5.10417" width="2" height="26" transform="rotate(45 23.4941 5.10417)" fill="#052962"/>
</svg>
